<svg viewBox="0 0 400 300" fill="none" xmlns="http://www.w3.org/2000/svg">
  <rect width="400" height="300" rx="20" fill="white"/>
  <rect x="30" y="35" width="340" height="230" rx="12" fill="#F5F3FF" stroke="#E0D4FF" stroke-width="1"/>
  <rect x="55" y="60" width="45" height="8" rx="4" fill="#C4B5FD"/>
  <rect x="110" y="60" width="140" height="8" rx="4" fill="#6D28FF" opacity="0.2"/>
  <rect x="260" y="60" width="80" height="8" rx="4" fill="#DDD6FE"/>
  <rect x="55" y="85" width="45" height="8" rx="4" fill="#C4B5FD"/>
  <rect x="110" y="85" width="200" height="8" rx="4" fill="#6D28FF" opacity="0.2"/>
  <rect x="320" y="85" width="25" height="8" rx="4" fill="#DDD6FE"/>
  <rect x="55" y="110" width="45" height="8" rx="4" fill="#C4B5FD"/>
  <rect x="110" y="110" width="80" height="8" rx="4" fill="#6D28FF" opacity="0.2"/>
  <rect x="200" y="110" width="120" height="8" rx="4" fill="#7C3AED" opacity="0.35"/>
  <rect x="55" y="135" width="45" height="8" rx="4" fill="#C4B5FD"/>
  <rect x="110" y="135" width="160" height="8" rx="4" fill="#6D28FF" opacity="0.2"/>
  <rect x="280" y="135" width="60" height="8" rx="4" fill="#DDD6FE"/>
  <rect x="55" y="160" width="45" height="8" rx="4" fill="#C4B5FD"/>
  <rect x="110" y="160" width="50" height="8" rx="4" fill="#6D28FF" opacity="0.2"/>
  <rect x="170" y="160" width="150" height="8" rx="4" fill="#8B5CF6" opacity="0.4"/>
  <rect x="55" y="185" width="45" height="8" rx="4" fill="#C4B5FD"/>
  <rect x="110" y="185" width="230" height="8" rx="4" fill="#6D28FF" opacity="0.2"/>
  <rect x="55" y="210" width="45" height="8" rx="4" fill="#C4B5FD"/>
  <rect x="110" y="210" width="100" height="8" rx="4" fill="#6D28FF" opacity="0.2"/>
  <rect x="220" y="210" width="90" height="8" rx="4" fill="#7C3AED" opacity="0.35"/>
  <path d="M52 220 L350 220" stroke="#E0D4FF" stroke-width="1"/>
  <rect x="55" y="235" width="290" height="3" rx="1.5" fill="#C4B5FD"/>
  <rect x="55" y="235" width="100" height="3" rx="1.5" fill="#6D28FF"/>
</svg>