<svg viewBox="0 0 400 300" fill="none" xmlns="http://www.w3.org/2000/svg">
  <rect width="400" height="300" rx="20" fill="white"/>
  <rect x="30" y="40" width="340" height="220" rx="16" fill="#F5F3FF" stroke="#E0D4FF" stroke-width="1"/>
  <rect x="60" y="70" width="120" height="80" rx="12" fill="white" stroke="#DDD6FE" stroke-width="1" class="shadow-lg"/>
  <circle cx="100" cy="100" r="18" fill="#6D28FF" opacity="0.15"/>
  <circle cx="100" cy="100" r="12" fill="#6D28FF"/>
  <rect x="85" y="125" width="30" height="4" rx="2" fill="#C4B5FD"/>
  <rect x="75" y="135" width="50" height="3" rx="2" fill="#E0D4FF"/>
  <rect x="220" y="70" width="120" height="80" rx="12" fill="white" stroke="#DDD6FE" stroke-width="1"/>
  <circle cx="260" cy="100" r="18" fill="#7C3AED" opacity="0.15"/>
  <circle cx="260" cy="100" r="12" fill="#7C3AED"/>
  <rect x="245" y="125" width="30" height="4" rx="2" fill="#C4B5FD"/>
  <rect x="235" y="135" width="50" height="3" rx="2" fill="#E0D4FF"/>
  <rect x="140" y="170" width="120" height="80" rx="12" fill="white" stroke="#DDD6FE" stroke-width="1"/>
  <circle cx="180" cy="200" r="18" fill="#8B5CF6" opacity="0.15"/>
  <circle cx="180" cy="200" r="12" fill="#8B5CF6"/>
  <rect x="165" y="225" width="30" height="4" rx="2" fill="#C4B5FD"/>
  <rect x="155" y="235" width="50" height="3" rx="2" fill="#E0D4FF"/>
  <circle cx="100" cy="195" r="8" fill="#A78BFA" opacity="0.3"/>
  <circle cx="300" cy="195" r="8" fill="#A78BFA" opacity="0.3"/>
  <circle cx="100" cy="155" r="6" fill="#C4B5FD" opacity="0.5"/>
  <circle cx="300" cy="155" r="6" fill="#C4B5FD" opacity="0.5"/>
</svg>