<svg viewBox="0 0 400 300" fill="none" xmlns="http://www.w3.org/2000/svg">
  <rect width="400" height="300" rx="20" fill="white"/>
  <rect x="30" y="35" width="340" height="230" rx="12" fill="#F5F3FF" stroke="#E0D4FF" stroke-width="1"/>
  <rect x="30" y="35" width="340" height="32" rx="12" fill="#F0EBFF"/>
  <circle cx="50" cy="51" r="5" fill="#EF4444"/>
  <circle cx="65" cy="51" r="5" fill="#F59E0B"/>
  <circle cx="80" cy="51" r="5" fill="#22C55E"/>
  <rect x="48" y="85" width="60" height="12" rx="4" fill="#E0D4FF"/>
  <rect x="48" y="105" width="100" height="8" rx="4" fill="#C4B5FD"/>
  <rect x="48" y="125" width="80" height="8" rx="4" fill="#DDD6FE"/>
  <rect x="48" y="145" width="90" height="8" rx="4" fill="#E0D4FF"/>
  <rect x="48" y="165" width="70" height="8" rx="4" fill="#C4B5FD"/>
  <rect x="160" y="85" width="90" height="60" rx="8" fill="#7C3AED"/>
  <rect x="160" y="85" width="90" height="60" rx="8" fill="#6D28FF" opacity="0.15"/>
  <rect x="170" y="95" width="30" height="10" rx="3" fill="#7C3AED" opacity="0.3"/>
  <rect x="170" y="110" width="40" height="8" rx="3" fill="#7C3AED" opacity="0.2"/>
  <rect x="170" y="122" width="25" height="6" rx="3" fill="#7C3AED" opacity="0.15"/>
  <rect x="260" y="85" width="90" height="60" rx="8" fill="#C4B5FD"/>
  <rect x="270" y="95" width="20" height="8" rx="3" fill="#A78BFA"/>
  <rect x="270" y="108" width="35" height="6" rx="3" fill="#A78BFA" opacity="0.5"/>
  <rect x="160" y="160" width="190" height="90" rx="8" fill="#F0EBFF"/>
  <path d="M175 200 L200 180 L220 195 L245 170 L270 190 L290 175 L335 200" stroke="#6D28FF" stroke-width="2" fill="none"/>
  <circle cx="200" cy="180" r="4" fill="#6D28FF"/>
  <circle cx="245" cy="170" r="4" fill="#6D28FF"/>
  <circle cx="290" cy="175" r="4" fill="#6D28FF"/>
  <rect x="175" y="220" width="40" height="6" rx="3" fill="#6D28FF" opacity="0.2"/>
  <rect x="225" y="220" width="60" height="6" rx="3" fill="#7C3AED" opacity="0.3"/>
  <rect x="295" y="220" width="40" height="6" rx="3" fill="#6D28FF" opacity="0.2"/>
  <rect x="48" y="195" width="100" height="8" rx="4" fill="#DDD6FE"/>
  <rect x="48" y="215" width="85" height="8" rx="4" fill="#C4B5FD"/>
  <rect x="48" y="235" width="95" height="8" rx="4" fill="#E0D4FF"/>
</svg>