<svg viewBox="0 0 200 160" fill="none" xmlns="http://www.w3.org/2000/svg">
  <rect width="200" height="160" rx="16" fill="#F5F3FF"/>
  <rect x="35" y="30" width="130" height="100" rx="10" fill="white" stroke="#DDD6FE" stroke-width="1"/>
  <path d="M70 90 C60 90 55 82 60 75 C55 68 62 58 72 62 C75 52 90 50 96 58 C100 55 110 56 112 64 C120 65 125 74 118 80 C122 86 116 90 110 90 L70 90 Z" fill="#6D28FF" opacity="0.1" stroke="#6D28FF" stroke-width="1.5"/>
  <path d="M85 78 L100 78" stroke="#6D28FF" stroke-width="2" stroke-linecap="round"/>
  <path d="M92 72 L92 84" stroke="#6D28FF" stroke-width="2" stroke-linecap="round"/>
  <rect x="74" y="105" width="52" height="6" rx="3" fill="#C4B5FD"/>
  <rect x="78" y="115" width="44" height="5" rx="2.5" fill="#E0D4FF"/>
</svg>